# xmcd
#
# Track frame offsets: 
#        150
#        17200
#        29582
#        44872
#        57194
#        70390
#        84732
#        99587
#        119157
#        131253
#        143234
#        152897
#        165194
#        181282
#        194221
#        210666
#        226035
#        243374
#        254814
#        265637
#
# Disc length: 3725 seconds
#
# Revision: 1
# Processed by: cddbd v1.5.2PL0 Copyright (c) Steve Scherf et al.
# Submitted via: ExactAudioCopy v1.0b1
#
DISCID=2b0e8b14
DTITLE=Various Artist - Country Legends [CD2]
DYEAR=2002
DGENRE=Country
TTITLE0=Johnny Cash - A Boy Named Sue
TTITLE1=Dolly Parton - 9 To 5
TTITLE2=Billy Ray Cyrus - Achy Breaky Heart
TTITLE3=Billie Jo Spears - What I've Got In mind
TTITLE4=Dr. Hook - When You're In Love With A Beautiful Woman
TTITLE5=Glen Campbell - Rhinestone Cowboy
TTITLE6=Olivia Newton John - Take Me Home Country Roads
TTITLE7=Kenny Rogers - Coward Of The County
TTITLE8=Charlie Rich - The Most Beautiful Girl
TTITLE9=Tammy Wynette - Stand By Your Man
TTITLE10=Ned Miller - From A Jack To A King
TTITLE11=Johhny Cash - I Walk The Line
TTITLE12=Billie Jo Spears - Blanket On The Ground
TTITLE13=Bobbie Gentry - I'll Never Fall In Love Again
TTITLE14=Kenny Rogers - Lucille
TTITLE15=Don McLean - Crazy
TTITLE16=Kenny Rogers and Sheena Easton - We've Got Tonight
TTITLE17=Crystal Gayle - Don't It Make My Brown Eyes Blue
TTITLE18=Jim Reeves - He'll Have To Go
TTITLE19=Willie Nelson - Funny How Time Slips Away
EXTD=UPC: 009463751812
EXTT0=
EXTT1=
EXTT2=
EXTT3=
EXTT4=
EXTT5=
EXTT6=
EXTT7=
EXTT8=
EXTT9=
EXTT10=
EXTT11=
EXTT12=
EXTT13=
EXTT14=
EXTT15=
EXTT16=
EXTT17=
EXTT18=
EXTT19=
PLAYORDER=
